<?xml version="1.0" standalone="no"?>
<!DOCTYPE svg PUBLIC "-//W3C//DTD SVG 20010904//EN"
 "http://www.w3.org/TR/2001/REC-SVG-20010904/DTD/svg10.dtd">
<svg version="1.0" xmlns="http://www.w3.org/2000/svg"
 width="200.000000pt" height="160.000000pt" viewBox="0 0 200.000000 160.000000"
 preserveAspectRatio="xMidYMid meet">
<metadata>
Created by potrace 1.16, written by Peter Selinger 2001-2019
</metadata>
<g transform="translate(0.000000,160.000000) scale(0.100000,-0.100000)"
fill="#000000" stroke="none">
<path d="M545 1513 c-23 -27 -68 -84 -100 -128 -63 -85 -187 -242 -288 -365
-78 -94 -149 -202 -139 -209 4 -4 14 -25 22 -49 7 -23 24 -54 38 -67 13 -14
36 -46 49 -72 14 -27 34 -57 44 -69 11 -11 19 -26 19 -32 0 -7 6 -12 14 -12 8
0 17 -8 20 -17 4 -10 20 -36 37 -58 16 -22 49 -67 73 -100 25 -34 55 -72 68
-85 13 -14 44 -50 68 -80 99 -121 123 -140 136 -106 6 17 -38 82 -146 217 -85
107 -204 261 -270 353 -25 34 -68 88 -97 120 l-51 58 41 43 c134 137 187 196
187 205 0 5 13 24 30 42 25 28 99 116 130 155 6 7 21 28 33 47 13 19 37 51 54
73 65 82 104 145 101 161 -6 32 -33 22 -73 -25z"/>
<path d="M1394 1536 c-6 -17 38 -82 146 -217 85 -107 204 -261 270 -353 25
-34 68 -88 97 -120 l51 -58 -41 -43 c-134 -137 -187 -196 -187 -205 0 -5 -13
-24 -29 -42 -76 -84 -113 -130 -178 -218 -153 -208 -161 -224 -127 -237 19 -7
40 15 146 157 68 91 175 225 296 374 80 98 154 208 144 215 -4 3 -14 25 -22
49 -7 23 -24 54 -38 67 -13 14 -36 46 -49 72 -14 27 -34 57 -44 69 -11 11 -19
26 -19 32 0 7 -6 12 -14 12 -8 0 -17 8 -20 17 -4 10 -20 36 -37 58 -16 22 -49
67 -73 100 -25 34 -55 72 -68 85 -13 14 -44 50 -68 80 -99 121 -123 140 -136
106z"/>
<path d="M1253 1490 c-52 -22 -72 -104 -38 -156 9 -14 15 -30 13 -35 -2 -5
-39 -11 -83 -12 -67 -2 -89 -7 -135 -32 -94 -52 -149 -149 -136 -243 7 -48 43
-123 86 -174 l28 -33 -77 -152 c-41 -84 -79 -153 -84 -153 -12 0 -27 48 -27
91 0 117 -161 120 -177 3 -9 -69 20 -147 78 -207 52 -54 60 -84 22 -79 -33 5
-89 -25 -102 -54 -16 -35 -14 -81 5 -109 20 -30 82 -49 117 -36 61 23 86 104
47 154 -23 29 -17 62 9 51 201 -86 440 17 497 215 33 111 -5 218 -125 355
l-70 79 40 80 c40 78 40 79 61 61 11 -11 26 -31 34 -45 19 -38 65 -55 104 -39
17 7 35 21 40 31 29 53 -7 143 -75 191 -52 37 -60 63 -17 54 35 -8 89 24 103
61 14 38 4 85 -25 112 -26 25 -80 35 -113 21z m-190 -782 c70 -99 58 -195 -29
-245 -23 -14 -56 -23 -81 -23 -43 0 -93 17 -93 32 0 19 146 298 154 295 5 -2
27 -28 49 -59z"/>
</g>
</svg>
